<mxfile host="multicloud-diagrams" agent="PIP package multicloud-diagrams. Generate resources in draw.io compatible format for Cloud infrastructure. Copyrights @ Roman Tsypuk 2023. MIT license." type="MultiCloud">
	<diagram id="diagram_1" name="AWS components">
		<mxGraphModel dx="1015" dy="661" grid="1" gridSize="10" guides="1" tooltips="1" connect="1" arrows="1" fold="1" page="1" pageScale="1" pageWidth="850" pageHeight="1100" math="0" shadow="1">
			<root>
				<mxCell id="0"/>
				<mxCell id="1" parent="0"/>
				<mxCell id="vertex:app_sync:arn:aws:app_sync:us-west-1:123456789012:service/app_sync/123" value="&lt;b&gt;Name&lt;/b&gt;: App Sync&lt;BR&gt;&lt;b&gt;ARN&lt;/b&gt;: arn:aws:app_sync:us-west-1:123456789012:service/app_sync/123&lt;BR&gt;-----------&lt;BR&gt;&lt;b&gt;serviceName&lt;/b&gt;: app_sync&lt;BR&gt;&lt;b&gt;userPoolId&lt;/b&gt;: 123&lt;BR&gt;&lt;b&gt;awsRegion&lt;/b&gt;: eu-west-1&lt;BR&gt;&lt;b&gt;defaultAction&lt;/b&gt;: ALLOW&lt;BR&gt;&lt;b&gt;appIdClientRegex&lt;/b&gt;: 123*&lt;BR&gt;&lt;b&gt;authenticationType&lt;/b&gt;: API_KEY |AMAZON_COGNITO_USER_POOLS&lt;BR&gt;&lt;b&gt;xrayEnabled&lt;/b&gt;: True" style="sketch=0;outlineConnect=0;fontColor=#232F3E;gradientColor=#FF4F8B;gradientDirection=north;fillColor=#BC1356;strokeColor=#ffffff;dashed=0;verticalLabelPosition=bottom;verticalAlign=top;align=left;html=1;fontSize=12;fontStyle=0;aspect=fixed;shape=mxgraph.aws4.resourceIcon;resIcon=mxgraph.aws4.appsync;" parent="1" vertex="1">
					<mxGeometry width="78" height="78" as="geometry"/>
				</mxCell>
			</root>
		</mxGraphModel>
	</diagram>
</mxfile>